<?xml version="1.0" encoding="utf-8"?>
<!-- Generator: Adobe Illustrator 22.0.1, SVG Export Plug-In . SVG Version: 6.00 Build 0)  -->
<svg version="1.1" id="Слой_1" xmlns="http://www.w3.org/2000/svg" xmlns:xlink="http://www.w3.org/1999/xlink" x="0px" y="0px"
	 viewBox="0 0 60 60" style="enable-background:new 0 0 60 60;" xml:space="preserve">
<style type="text/css">
	.st0{fill:none;stroke:#0CAAFE;stroke-width:2;stroke-linecap:round;stroke-linejoin:round;stroke-miterlimit:10;}
</style>
<g>
	<path class="st0" d="M9,3H5C3,3,1,5,1,7v2"/>
	<path class="st0" d="M59,38V7c0-2-2-4-4-4h-4"/>
	<path class="st0" d="M55,13H1v42c0,2,2,4,4,4h33"/>
	<path class="st0" d="M55,36V17H5v35c0,1.7,1.3,3,3,3h28"/>
	<path class="st0" d="M17,7c0,1.1-0.9,2-2,2l0,0c-1.1,0-2-0.9-2-2V3c0-1.1,0.9-2,2-2l0,0c1.1,0,2,0.9,2,2V7z"/>
	<path class="st0" d="M27,7c0,1.1-0.9,2-2,2l0,0c-1.1,0-2-0.9-2-2V3c0-1.1,0.9-2,2-2l0,0c1.1,0,2,0.9,2,2V7z"/>
	<path class="st0" d="M37,7c0,1.1-0.9,2-2,2l0,0c-1.1,0-2-0.9-2-2V3c0-1.1,0.9-2,2-2l0,0c1.1,0,2,0.9,2,2V7z"/>
	<path class="st0" d="M47,7c0,1.1-0.9,2-2,2l0,0c-1.1,0-2-0.9-2-2V3c0-1.1,0.9-2,2-2l0,0c1.1,0,2,0.9,2,2V7z"/>
	<rect x="13" y="23" class="st0" width="4" height="4"/>
	<rect x="13" y="33" class="st0" width="4" height="4"/>
	<rect x="23" y="23" class="st0" width="4" height="4"/>
	<rect x="23" y="33" class="st0" width="4" height="4"/>
	<rect x="33" y="33" class="st0" width="4" height="4"/>
	<polyline class="st0" points="43,35 43,33 47,33 47,35 	"/>
	<rect x="33" y="23" class="st0" width="4" height="4"/>
	<rect x="13" y="43" class="st0" width="4" height="4"/>
	<rect x="23" y="43" class="st0" width="4" height="4"/>
	<rect x="43" y="23" class="st0" width="4" height="4"/>
	<circle class="st0" cx="49" cy="49" r="10"/>
	<polyline class="st0" points="49,45 49,49 55,49 	"/>
	<polyline class="st0" points="35,47 33,47 33,43 35,43 	"/>
</g>
</svg>
