<?xml version="1.0" encoding="utf-8"?>
<!-- Generator: Adobe Illustrator 22.0.1, SVG Export Plug-In . SVG Version: 6.00 Build 0)  -->
<svg version="1.1" id="Слой_1" xmlns="http://www.w3.org/2000/svg" xmlns:xlink="http://www.w3.org/1999/xlink" x="0px" y="0px"
	 viewBox="0 0 56 60" style="enable-background:new 0 0 56 60;" xml:space="preserve">
<style type="text/css">
	.st0{fill:none;stroke:#0CAAFE;stroke-width:2;stroke-linecap:round;stroke-linejoin:round;stroke-miterlimit:10;}
</style>
<g>
	<path class="st0" d="M33,59H5c-2,0-4-2-4-4V9c0-2,2-4,4-4h6"/>
	<path class="st0" d="M41,5h6c2,0,4,2,4,4v26"/>
	<path class="st0" d="M11,9H5v43c0,1.7,1.3,3,3,3h23"/>
	<polyline class="st0" points="47,35 47,9 41,9 	"/>
	<circle class="st0" cx="26" cy="6" r="1"/>
	<path class="st0" d="M30.9,5c-0.5-2.3-2.5-4-4.9-4c-2.4,0-4.4,1.7-4.9,4H15v6h22V5H30.9z"/>
	<line class="st0" x1="13" y1="21" x2="15" y2="21"/>
	<line class="st0" x1="13" y1="27" x2="15" y2="27"/>
	<line class="st0" x1="13" y1="33" x2="15" y2="33"/>
	<line class="st0" x1="13" y1="39" x2="15" y2="39"/>
	<line class="st0" x1="13" y1="45" x2="15" y2="45"/>
	<line class="st0" x1="21" y1="21" x2="37" y2="21"/>
	<line class="st0" x1="21" y1="27" x2="35" y2="27"/>
	<line class="st0" x1="21" y1="33" x2="39" y2="33"/>
	<line class="st0" x1="21" y1="39" x2="33" y2="39"/>
	<line class="st0" x1="21" y1="45" x2="29" y2="45"/>
	<polyline class="st0" points="41,49 44,52 49,47 	"/>
	<circle class="st0" cx="45" cy="49" r="10"/>
</g>
</svg>
