<?xml version="1.0" encoding="utf-8"?>
<!-- Generator: Adobe Illustrator 22.0.1, SVG Export Plug-In . SVG Version: 6.00 Build 0)  -->
<svg version="1.1" id="Слой_1" xmlns="http://www.w3.org/2000/svg" xmlns:xlink="http://www.w3.org/1999/xlink" x="0px" y="0px"
	 viewBox="0 0 52 60" style="enable-background:new 0 0 52 60;" xml:space="preserve">
<style type="text/css">
	.st0{fill:none;stroke:#CFCFCF;stroke-width:2;stroke-linecap:round;stroke-linejoin:round;stroke-miterlimit:10;}
</style>
<g>
	<path class="st0" d="M39,6v3c0,2.2,1.8,4,4,4h8v34c0,2.2-1.8,4-4,4H13c-2.2,0-4-1.8-4-4V5c0-2.2,1.8-4,4-4h26l8,8"/>
	<path class="st0" d="M45,55H9c-2.2,0-4-1.8-4-4V7"/>
	<path class="st0" d="M41,59H5c-2.2,0-4-1.8-4-4V11"/>
	<line class="st0" x1="31" y1="15" x2="19" y2="15"/>
	<line class="st0" x1="25" y1="23" x2="19" y2="23"/>
	<line class="st0" x1="29" y1="23" x2="39" y2="23"/>
	<line class="st0" x1="19" y1="35" x2="31" y2="35"/>
	<line class="st0" x1="19" y1="29" x2="23" y2="29"/>
	<line class="st0" x1="27" y1="29" x2="29" y2="29"/>
	<line class="st0" x1="33" y1="29" x2="41" y2="29"/>
	<line class="st0" x1="19" y1="41" x2="23" y2="41"/>
	<line class="st0" x1="27" y1="41" x2="41" y2="41"/>
	<line class="st0" x1="35" y1="35" x2="39" y2="35"/>
</g>
</svg>
