<?xml version="1.0" encoding="utf-8"?>
<!-- Generator: Adobe Illustrator 22.0.1, SVG Export Plug-In . SVG Version: 6.00 Build 0)  -->
<svg version="1.1" id="Слой_1" xmlns="http://www.w3.org/2000/svg" xmlns:xlink="http://www.w3.org/1999/xlink" x="0px" y="0px"
	 viewBox="0 0 60 48" style="enable-background:new 0 0 60 48;" xml:space="preserve">
<style type="text/css">
	.st0{fill:none;stroke:#0CAAFE;stroke-width:2;stroke-linecap:round;stroke-linejoin:round;stroke-miterlimit:10;}
</style>
<g>
	<path class="st0" d="M35.2,31H53c3.3,0,6-2.7,6-6s-2.7-6-6-6c0,0-1-6-6-6H7.4l-2-5C5.2,7.3,4.6,7,4,7H2C1.4,7,1,7.4,1,8v7
		c0,9,7,16,16,16"/>
	<circle class="st0" cx="38" cy="18" r="1"/>
	<circle class="st0" cx="32" cy="18" r="1"/>
	<circle class="st0" cx="26" cy="18" r="1"/>
	<circle class="st0" cx="20" cy="18" r="1"/>
	<circle class="st0" cx="14" cy="18" r="1"/>
	<path class="st0" d="M49,19h-2.5c-1.2,0-2.1-0.9-2.5-2l-1-4"/>
	<path class="st0" d="M37,27l-9,19c-0.3,0.6-0.9,1-1.5,1H22c-0.6,0-1-0.4-1-1V27h12"/>
	<line class="st0" x1="41" y1="27" x2="53" y2="27"/>
	<path class="st0" d="M37,27l-9,19c-0.3,0.6-0.9,1-1.5,1H22c-0.6,0-1-0.4-1-1V27h12"/>
	<path class="st0" d="M31,9l-3-7c-0.3-0.6-0.9-1-1.5-1H22c-0.6,0-1,0.5-1,1v7"/>
	<line class="st0" x1="13" y1="1" x2="15" y2="1"/>
	<line class="st0" x1="11" y1="7" x2="15" y2="7"/>
	<line class="st0" x1="9" y1="35" x2="15" y2="35"/>
	<line class="st0" x1="5" y1="41" x2="15" y2="41"/>
	<line class="st0" x1="11" y1="47" x2="15" y2="47"/>
</g>
</svg>
