<?xml version="1.0" encoding="utf-8"?>
<!-- Generator: Adobe Illustrator 22.0.1, SVG Export Plug-In . SVG Version: 6.00 Build 0)  -->
<svg version="1.1" id="Слой_1" xmlns="http://www.w3.org/2000/svg" xmlns:xlink="http://www.w3.org/1999/xlink" x="0px" y="0px"
	 viewBox="0 0 60 60" style="enable-background:new 0 0 60 60;" xml:space="preserve">
<style type="text/css">
	.st0{fill:none;stroke:#0CAAFE;stroke-width:2;stroke-linecap:round;stroke-linejoin:round;stroke-miterlimit:10;}
</style>
<g>
	<circle class="st0" cx="30" cy="30" r="15"/>
	<line class="st0" x1="11" y1="30" x2="3" y2="30"/>
	<line class="st0" x1="57" y1="30" x2="49" y2="30"/>
	<line class="st0" x1="30" y1="49" x2="30" y2="57"/>
	<line class="st0" x1="30" y1="11" x2="30" y2="4"/>
	<line class="st0" x1="16.9" y1="16.7" x2="11.3" y2="11.1"/>
	<line class="st0" x1="49.4" y1="49.2" x2="43.8" y2="43.6"/>
	<line class="st0" x1="16.9" y1="43.6" x2="11.3" y2="49.2"/>
	<line class="st0" x1="43.8" y1="16.7" x2="48.7" y2="11.8"/>
	<line class="st0" x1="47.6" y1="22.7" x2="51.2" y2="21.2"/>
	<line class="st0" x1="54.9" y1="19.7" x2="59" y2="18"/>
	<line class="st0" x1="37.3" y1="12.4" x2="38.8" y2="8.8"/>
	<line class="st0" x1="40.3" y1="5.1" x2="42" y2="1"/>
	<line class="st0" x1="22.7" y1="12.4" x2="21.2" y2="8.8"/>
	<line class="st0" x1="19.7" y1="5.1" x2="18" y2="1"/>
	<line class="st0" x1="12.4" y1="22.7" x2="8.8" y2="21.2"/>
	<line class="st0" x1="5.1" y1="19.7" x2="1" y2="18"/>
	<line class="st0" x1="12.4" y1="37.3" x2="8.8" y2="38.8"/>
	<line class="st0" x1="5.1" y1="40.3" x2="1" y2="42"/>
	<line class="st0" x1="22.7" y1="47.6" x2="21.2" y2="51.2"/>
	<line class="st0" x1="19.7" y1="54.9" x2="18" y2="59"/>
	<line class="st0" x1="37.3" y1="47.6" x2="38.8" y2="51.2"/>
	<line class="st0" x1="40.3" y1="54.9" x2="42" y2="58.9"/>
	<line class="st0" x1="47.6" y1="37.3" x2="51.2" y2="38.8"/>
	<line class="st0" x1="54.9" y1="40.3" x2="59" y2="42"/>
	<path class="st0" d="M39.8,25c-0.9-1.7-2.2-3.2-3.8-4.2"/>
</g>
</svg>
